<?xml version="1.0" standalone="no"?>
<!DOCTYPE svg PUBLIC "-//W3C//DTD SVG 20010904//EN"
 "http://www.w3.org/TR/2001/REC-SVG-20010904/DTD/svg10.dtd">
<svg version="1.0" xmlns="http://www.w3.org/2000/svg"
 width="292.000000pt" height="292.000000pt" viewBox="0 0 292.000000 292.000000"
 preserveAspectRatio="xMidYMid meet">
<metadata>
Created by potrace 1.14, written by Peter Selinger 2001-2017
</metadata>
<g transform="translate(0.000000,292.000000) scale(0.100000,-0.100000)"
fill="#000000" stroke="none">
<path d="M0 1460 l0 -1460 1460 0 1460 0 0 1460 0 1460 -1460 0 -1460 0 0
-1460z m1940 1094 c16 -41 12 -166 -6 -192 l-15 -22 -570 0 -569 0 -10 26
c-11 28 -13 156 -4 192 l6 22 579 0 579 0 10 -26z m-906 -299 c30 -30 33 -188
4 -222 -8 -10 -74 -13 -283 -13 l-273 0 -12 30 c-7 18 -11 61 -8 111 3 66 7
83 23 95 29 21 527 21 549 -1z m1192 1 c16 -13 19 -27 19 -109 0 -65 -4 -99
-14 -110 -12 -15 -44 -17 -281 -17 -237 0 -269 2 -281 17 -10 11 -14 45 -14
108 0 63 4 97 14 108 12 15 44 17 275 17 211 0 266 -3 282 -14z m-1192 -321
c30 -30 33 -188 4 -222 -8 -10 -73 -13 -279 -13 -318 0 -299 -8 -299 125 0
133 -18 125 295 125 222 0 266 -2 279 -15z m1197 -322 c10 -11 14 -45 14 -110
0 -82 -3 -97 -19 -109 -17 -12 -132 -14 -725 -14 -427 0 -712 4 -721 10 -19
12 -28 187 -11 219 l12 21 718 0 c657 0 720 -1 732 -17z m297 -315 c24 -31 26
-178 3 -216 -6 -10 -67 -13 -282 -12 -244 0 -275 2 -286 17 -15 20 -17 160 -3
197 l10 26 274 0 c207 0 276 -3 284 -12z m-1489 -322 c18 -21 25 -135 12 -183
l-12 -43 -280 0 -279 0 -10 26 c-6 14 -10 56 -10 94 0 38 4 80 10 94 l10 26
274 0 c221 0 276 -3 285 -14z m1492 -2 c15 -18 19 -151 6 -196 l-7 -28 -280 0
-280 0 -10 26 c-6 14 -10 56 -10 94 0 38 4 80 10 94 l10 26 274 0 c238 0 275
-2 287 -16z m-292 -335 c14 -41 14 -137 0 -178 l-11 -31 -724 0 c-835 0 -744
-15 -744 120 0 135 -91 120 744 120 l724 0 11 -31z"/>
</g>
</svg>
